HIERARCHY
ROOT SpineBase
{
  OFFSET 0.000000 0.000000 0.000000
  CHANNELS 6 Xposition Yposition Zposition Zrotation Xrotation Yrotation
  JOINT SpineMid
  {
    OFFSET 0.000000 27.309675 -0.000000
    CHANNELS 3 Zrotation Xrotation Yrotation
    JOINT SpineShoulder
    {
      OFFSET 0.165045 20.557484 -0.683249
      CHANNELS 3 Zrotation Xrotation Yrotation
      JOINT Neck
      {
        OFFSET 0.072884 6.908462 -0.524936
        CHANNELS 3 Zrotation Xrotation Yrotation
        JOINT Head
        {
          OFFSET 4.458731 13.540553 1.691799
          CHANNELS 3 Zrotation Xrotation Yrotation
          End Site
          {
            OFFSET 0 0 0
          }
        }
      }
      JOINT ShoulderLeft
      {
        OFFSET -11.427582 0.683356 -10.204582
        CHANNELS 3 Zrotation Xrotation Yrotation
        JOINT ElbowLeft
        {
          OFFSET -2.827745 -20.735388 -9.954408
          CHANNELS 3 Zrotation Xrotation Yrotation
          JOINT WristLeft
          {
            OFFSET 3.947877 -13.774037 -9.089944
            CHANNELS 3 Zrotation Xrotation Yrotation
            JOINT HandLeft
            {
              OFFSET 0.699296 -2.584151 -2.737218
              CHANNELS 3 Zrotation Xrotation Yrotation
              JOINT HandTipLeft
              {
                OFFSET 1.413568 -1.045407 -3.260035
                CHANNELS 3 Zrotation Xrotation Yrotation
                End Site
                {
                  OFFSET 0 0 0
                }
              }
              JOINT ThumbLeft
              {
                OFFSET -3.223419 -0.685427 -1.630811
                CHANNELS 3 Zrotation Xrotation Yrotation
                End Site
                {
                  OFFSET 0 0 0
                }
              }
            }
          }
        }
      }
      JOINT ShoulderRight
      {
        OFFSET 13.351055 -4.101803 7.471945
        CHANNELS 3 Zrotation Xrotation Yrotation
        JOINT ElbowRight
        {
          OFFSET 8.861554 -24.304322 -5.838452
          CHANNELS 3 Zrotation Xrotation Yrotation
          JOINT WristRight
          {
            OFFSET 10.563412 -12.295039 -13.117610
            CHANNELS 3 Zrotation Xrotation Yrotation
            JOINT HandRight
            {
              OFFSET 0.005349 -2.869948 -3.809789
              CHANNELS 3 Zrotation Xrotation Yrotation
              JOINT HandTipRight
              {
                OFFSET 3.636592 -4.044216 -3.572717
                CHANNELS 3 Zrotation Xrotation Yrotation
                End Site
                {
                  OFFSET 0 0 0
                }
              }
              JOINT ThumbRight
              {
                OFFSET -0.332458 -0.866969 -4.731206
                CHANNELS 3 Zrotation Xrotation Yrotation
                End Site
                {
                  OFFSET 0 0 0
                }
              }
            }
          }
        }
      }
    }
  }
  JOINT HipLeft
  {
    OFFSET -5.650880 1.757014 -7.297322
    CHANNELS 3 Zrotation Xrotation Yrotation
    JOINT KneeLeft
    {
      OFFSET 8.777023 4.569613 -30.475540
      CHANNELS 3 Zrotation Xrotation Yrotation
      JOINT AnkleLeft
      {
        OFFSET 4.980675 -33.436176 0.692005
        CHANNELS 3 Zrotation Xrotation Yrotation
        JOINT FootLeft
        {
          OFFSET 6.233272 -2.255783 -11.394674
          CHANNELS 3 Zrotation Xrotation Yrotation
          End Site
          {
            OFFSET 0 0 0
          }
        }
      }
    }
  }
  JOINT HipRight
  {
    OFFSET 6.668413 1.208031 1.171260
    CHANNELS 3 Zrotation Xrotation Yrotation
    JOINT KneeRight
    {
      OFFSET 24.267775 1.690025 -14.907406
      CHANNELS 3 Zrotation Xrotation Yrotation
      JOINT AnkleRight
      {
        OFFSET -9.186102 -32.173577 -10.038725
        CHANNELS 3 Zrotation Xrotation Yrotation
        JOINT FootRight
        {
          OFFSET -6.556832 0.968787 -11.918772
          CHANNELS 3 Zrotation Xrotation Yrotation
          End Site
          {
            OFFSET 0 0 0
          }
        }
      }
    }
  }
}
MOTION
Frames: 13
Frame Time: 0.033333
-58.823323 37.998629 356.384223 2.450053 1.610852 -29.379251 0.346190 0.172959 29.431669 -0.075504 0.111187 0.106807 6.087374 -8.313911 1.665121 0.000000 0.000000 0.000000 3.649104 1.326928 -3.687629 -12.758945 -6.290588 6.530364 -1.356906 2.832099 5.328309 -1.695334 -14.477556 -2.968686 0.000000 0.000000 0.000000 0.000000 0.000000 0.000000 55.963477 5.344372 -12.390304 -0.487390 36.790825 -18.758728 25.848753 50.221732 -67.170000 36.043480 7.241456 70.445203 0.000000 0.000000 0.000000 0.000000 0.000000 0.000000 -1.346381 -2.604713 29.314191 0.904758 -1.124552 -0.139722 -2.161249 0.397015 4.808200 0.000000 0.000000 0.000000 -5.397212 -10.091499 30.035483 7.265564 4.421892 -1.451210 -4.512754 8.013706 7.043399 0.000000 0.000000 0.000000
-58.756495 38.103223 356.397420 2.595498 1.558834 -28.271674 0.283932 0.086466 28.325365 -0.040588 0.039443 0.114803 7.263359 -8.615045 1.788454 0.000000 0.000000 0.000000 3.806487 1.498896 -3.829574 -26.966850 -14.199895 12.405299 2.309671 1.934405 8.210026 -5.092195 -23.905713 -13.474342 0.000000 0.000000 0.000000 0.000000 0.000000 0.000000 58.825607 5.435391 -13.268933 -2.122152 38.123263 -18.976508 28.672682 40.615636 -67.252761 27.206824 10.349641 68.435809 0.000000 0.000000 0.000000 0.000000 0.000000 0.000000 -1.362895 -2.875697 29.057536 1.012781 -0.870307 -0.996833 -1.953421 0.794639 3.755208 0.000000 0.000000 0.000000 -5.986817 -10.388513 28.767293 6.873463 4.167812 -0.939405 -3.205618 7.763923 6.708178 0.000000 0.000000 0.000000
-58.691441 38.185292 356.366277 2.752828 1.587724 -27.239321 0.261689 -0.020529 27.294956 -0.019102 -0.013679 0.122585 8.095086 -8.818182 1.864582 0.000000 0.000000 0.000000 3.941080 1.594417 -3.967497 -35.937199 -19.744887 15.258291 5.604513 0.304105 8.145172 -12.768811 -29.263980 -23.905308 0.000000 0.000000 0.000000 0.000000 0.000000 0.000000 62.458190 5.763589 -14.369290 -7.126755 34.582716 -17.970932 25.410184 29.583588 -61.478914 16.172818 15.803155 60.932008 0.000000 0.000000 0.000000 0.000000 0.000000 0.000000 -1.513955 -3.004310 28.125440 1.075200 -0.812966 -1.103369 -1.998918 3.328304 9.778482 0.000000 0.000000 0.000000 -6.634724 -10.850741 27.427136 6.834134 4.533018 -0.560313 -2.091193 6.815147 6.419631 0.000000 0.000000 0.000000
-58.665760 38.253249 356.389614 2.840194 1.513188 -26.172001 0.250814 -0.027606 26.231185 0.003803 -0.068105 0.130130 8.779989 -8.901297 1.900009 0.000000 0.000000 0.000000 4.118454 1.755575 -4.130834 -38.948673 -21.488537 16.141604 6.519613 -0.153173 8.249636 -18.769932 -32.002452 -29.688193 0.000000 0.000000 0.000000 0.000000 0.000000 0.000000 66.710242 6.411254 -15.761434 -11.683442 28.793341 -18.022330 21.395178 18.632694 -55.793492 14.781267 20.325045 52.593561 0.000000 0.000000 0.000000 0.000000 0.000000 0.000000 -1.660425 -3.002320 27.125330 1.121066 -0.869282 -1.187887 -4.278989 0.957991 16.410604 0.000000 0.000000 0.000000 -7.271936 -11.144094 26.099753 6.744207 4.908418 -0.205632 -1.343004 6.449961 6.046846 0.000000 0.000000 0.000000
-58.626848 38.343116 356.490367 2.958569 1.306822 -25.215977 0.153710 0.065518 25.277704 0.008566 -0.142852 0.136715 9.403870 -9.011449 1.958999 0.000000 0.000000 0.000000 4.299330 1.837218 -4.267675 -36.158205 -19.091302 15.731427 5.440157 -0.458753 7.626527 -18.600709 -32.021799 -29.760615 0.000000 0.000000 0.000000 0.000000 0.000000 0.000000 70.705895 7.311040 -17.239085 -15.242765 20.830181 -19.008733 16.215866 12.801259 -50.766756 8.177898 18.157155 48.304791 0.000000 0.000000 0.000000 0.000000 0.000000 0.000000 -1.877618 -2.923091 26.258657 1.191334 -0.991567 -1.304393 -6.691720 -5.374831 15.364031 0.000000 0.000000 0.000000 -7.921601 -11.292001 25.115110 6.907004 5.106146 -0.137676 -1.125150 6.579124 5.841596 0.000000 0.000000 0.000000
-58.541070 38.451249 356.667542 3.146636 0.971055 -24.372234 -0.040564 0.174745 24.437694 0.056198 -0.301025 0.149855 10.083525 -8.957467 1.974340 0.000000 0.000000 0.000000 4.384333 2.113877 -4.398071 -27.516098 -12.907098 13.222228 1.722820 -0.318653 7.392026 -11.125260 -27.835331 -26.354838 0.000000 0.000000 0.000000 0.000000 0.000000 0.000000 74.284689 8.076696 -18.793584 -19.215323 11.673246 -19.953754 11.251938 12.647766 -46.587885 9.386709 12.232390 45.107898 0.000000 0.000000 0.000000 0.000000 0.000000 0.000000 -2.191231 -2.777007 25.564534 1.163120 -0.897328 -1.454267 -9.152659 -12.202875 9.579963 0.000000 0.000000 0.000000 -8.651633 -11.393463 24.511305 7.280912 5.273650 -0.388839 -1.478268 7.372352 5.864867 0.000000 0.000000 0.000000
-58.411007 38.563947 356.875559 3.422987 0.554976 -23.820448 -0.199853 0.261436 23.898634 0.110363 -0.449396 0.168549 10.456011 -8.541100 1.835505 0.000000 0.000000 0.000000 4.481372 2.518370 -4.618405 -8.359231 -1.876882 4.775031 -3.094926 -0.562149 3.233497 -4.323992 -16.885584 -8.562884 0.000000 0.000000 0.000000 0.000000 0.000000 0.000000 77.802033 9.156307 -20.653141 -23.973105 2.405635 -20.661640 9.860950 13.008245 -44.440593 7.335586 4.480787 44.486224 0.000000 0.000000 0.000000 0.000000 0.000000 0.000000 -2.594344 -2.555745 25.245245 1.159448 -0.839245 -1.681236 -18.442245 -24.036886 -23.376266 0.000000 0.000000 0.000000 -9.377009 -11.458453 24.418211 7.650405 5.433104 -0.858223 -1.517376 7.562194 5.946938 0.000000 0.000000 0.000000
-58.221701 38.674707 357.106998 3.807077 0.092923 -23.500129 -0.340650 0.312177 23.600019 0.150288 -0.577142 0.190771 10.655912 -8.071730 1.675480 0.000000 0.000000 0.000000 4.483278 3.035411 -4.865022 -0.774762 1.343381 0.676025 -2.301231 -0.043415 -0.650331 -4.163924 -5.209183 1.155439 0.000000 0.000000 0.000000 0.000000 0.000000 0.000000 79.664781 9.530907 -21.926369 -26.208644 -3.363006 -21.688606 8.208726 13.714675 -42.685067 7.089150 -1.068620 44.320795 0.000000 0.000000 0.000000 0.000000 0.000000 0.000000 -3.082315 -2.334959 25.286830 1.135952 -0.704748 -2.022731 -27.141762 -24.948947 -60.144051 0.000000 0.000000 0.000000 -10.123950 -11.543699 24.762672 8.142869 5.439704 -1.547702 -1.570881 7.653520 6.049803 0.000000 0.000000 0.000000
-58.099527 38.780122 357.303110 4.086282 -0.325002 -23.343193 -0.369387 0.347941 23.467941 0.196043 -0.684437 0.212609 10.881429 -7.756406 1.581298 0.000000 0.000000 0.000000 4.462504 3.477667 -5.087524 0.108422 1.744157 0.136552 -1.607615 1.378883 -1.514252 -2.887928 2.667169 3.784967 0.000000 0.000000 0.000000 0.000000 0.000000 0.000000 79.696831 9.285201 -22.401162 -26.155119 -5.407830 -22.421902 7.775082 13.278720 -42.174666 4.239661 -4.239666 45.336261 0.000000 0.000000 0.000000 0.000000 0.000000 0.000000 -3.458044 -2.169410 25.378660 1.125941 -0.443958 -2.236763 -16.164176 -18.485068 -68.072638 0.000000 0.000000 0.000000 -10.674919 -11.552888 25.159126 8.712377 5.382441 -2.173317 -1.666567 7.517004 6.187997 0.000000 0.000000 0.000000
-58.043369 38.856350 357.425265 4.281160 -0.679970 -23.280265 -0.319583 0.336548 23.430302 0.217557 -0.743143 0.228908 11.087064 -7.480535 1.501444 0.000000 0.000000 0.000000 4.466198 3.890937 -5.289345 -1.792230 1.026732 1.147754 -1.847403 3.255245 -0.281859 -1.444319 0.650205 2.267957 0.000000 0.000000 0.000000 0.000000 0.000000 0.000000 79.095715 8.433561 -22.407522 -25.298687 -4.709826 -22.781079 8.980383 13.076730 -43.622785 0.249114 -5.843949 47.500197 0.000000 0.000000 0.000000 0.000000 0.000000 0.000000 -3.741644 -2.030691 25.470513 1.135290 -0.215632 -2.359656 -14.395950 -17.683311 -69.607730 0.000000 0.000000 0.000000 -11.055925 -11.468620 25.429518 9.171705 5.289536 -2.571648 -2.076283 7.824721 6.259563 0.000000 0.000000 0.000000
-58.052307 38.916246 357.452359 4.369689 -0.910730 -23.282560 -0.195938 0.273097 23.453422 0.216256 -0.743493 0.237695 11.330772 -7.403514 1.500573 0.000000 0.000000 0.000000 4.548067 4.203192 -5.473956 -8.647167 -1.978079 4.767903 -2.403866 4.558980 3.536260 2.344278 -3.961374 -1.816456 0.000000 0.000000 0.000000 0.000000 0.000000 0.000000 77.533270 7.175611 -21.858116 -23.021142 -2.491234 -23.280557 7.494352 11.493278 -42.412732 -2.033956 -4.501246 47.354533 0.000000 0.000000 0.000000 0.000000 0.000000 0.000000 -3.897587 -1.953796 25.496289 1.167454 0.064075 -2.346169 -6.334109 -13.381886 -55.848792 0.000000 0.000000 0.000000 -11.291645 -11.418443 25.525756 9.571969 5.244535 -2.745218 -2.665648 8.400576 6.180017 0.000000 0.000000 0.000000
-58.148293 38.943053 357.390658 4.350854 -1.026221 -23.294971 -0.050244 0.169923 23.479370 0.172778 -0.680205 0.235029 11.653784 -7.541718 1.589521 0.000000 0.000000 0.000000 4.713778 4.393558 -5.604052 -9.351725 -2.429054 5.074726 -3.009345 4.419270 4.402466 4.220628 -2.297279 -3.040642 0.000000 0.000000 0.000000 0.000000 0.000000 0.000000 77.198057 6.387958 -21.690464 -22.637765 -2.219456 -23.592238 8.286033 10.014263 -42.728217 0.652784 2.048512 44.801346 0.000000 0.000000 0.000000 0.000000 0.000000 0.000000 -3.935067 -1.901516 25.396898 1.238553 0.341831 -2.196826 -4.482216 -10.417367 -33.749773 0.000000 0.000000 0.000000 -11.353530 -11.302597 25.338420 9.627115 5.538094 -2.619873 -2.897697 8.421302 6.260655 0.000000 0.000000 0.000000
-58.307094 38.939078 357.176734 4.249199 -0.883545 -23.186276 0.179774 -0.033610 23.375975 0.086044 -0.550331 0.223757 11.874040 -7.954849 1.791580 0.000000 0.000000 0.000000 4.923406 4.373055 -5.678353 -8.505554 -2.145957 4.584697 -3.823417 2.844699 4.398788 4.664929 -0.900077 -4.069857 0.000000 0.000000 0.000000 0.000000 0.000000 0.000000 77.003524 5.413951 -21.298378 -22.788626 -1.997915 -23.739275 9.864425 10.208219 -44.225733 5.076767 4.703548 43.112786 0.000000 0.000000 0.000000 0.000000 0.000000 0.000000 -3.819477 -2.043687 25.033290 1.296844 0.467232 -1.940531 -2.729390 -2.086652 -0.109843 0.000000 0.000000 0.000000 -11.305013 -11.284860 24.551118 9.552621 5.531011 -1.943723 -2.989066 8.650584 6.001107 0.000000 0.000000 0.000000
